# xmcd CD database file
#
# Track frame offsets:
#	150
#	18022
#	28870
#	45268
#	63622
#	83654
#	103146
#	119273
#	131283
#	135448
#	152389
#	168752
#	181419
#	201320
#	215400
#
# Disc length: 3027 seconds
#
# Revision: 1
# Processed by: cddbd v1.5.2PL0 Copyright (c) Steve Scherf et al.
# Submitted via: CDex 1.70beta2
#
DISCID=bb0bd10f
DTITLE=Markus James - Snakeskin Violin
DYEAR=2008
DGENRE=Blues
TTITLE0=I Won't Let It
TTITLE1=Lonely Mile
TTITLE2=Are You Ready (Mississippi Daze)
TTITLE3=Exile Tracks
TTITLE4=So Much Soul
TTITLE5=All That You Can't Keep
TTITLE6=Weather Vane
TTITLE7=O.M. Boogie
TTITLE8=Ambience
TTITLE9=Drivin By
TTITLE10=Sundown Pearl (Snakeskin Violin Pt 1)
TTITLE11=X-ray Soul (Hard to Find Pt 1)
TTITLE12=Heatin Up Now
TTITLE13=Mystified
TTITLE14=Soon
EXTD=YEAR: 2008
EXTT0=
EXTT1=
EXTT2=
EXTT3=
EXTT4=
EXTT5=
EXTT6=
EXTT7=
EXTT8=
EXTT9=
EXTT10=
EXTT11=
EXTT12=
EXTT13=
EXTT14=
PLAYORDER=
